<?xml version="1.0" encoding="UTF-8" standalone="no"?>
<!-- Created with Inkscape (http://www.inkscape.org/) -->

<svg
   width="50mm"
   height="50mm"
   viewBox="0 0 50 50"
   version="1.1"
   id="svg5947"
   xml:space="preserve"
   inkscape:version="1.2.1 (9c6d41e410, 2022-07-14)"
   sodipodi:docname="add_avatar.svg"
   xmlns:inkscape="http://www.inkscape.org/namespaces/inkscape"
   xmlns:sodipodi="http://sodipodi.sourceforge.net/DTD/sodipodi-0.dtd"
   xmlns="http://www.w3.org/2000/svg"
   xmlns:svg="http://www.w3.org/2000/svg"><sodipodi:namedview
     id="namedview5949"
     pagecolor="#ffffff"
     bordercolor="#000000"
     borderopacity="0.25"
     inkscape:showpageshadow="2"
     inkscape:pageopacity="0.0"
     inkscape:pagecheckerboard="0"
     inkscape:deskcolor="#d1d1d1"
     inkscape:document-units="mm"
     showgrid="false"
     inkscape:zoom="1.4788159"
     inkscape:cx="307.34048"
     inkscape:cy="75.39816"
     inkscape:window-width="1920"
     inkscape:window-height="991"
     inkscape:window-x="-9"
     inkscape:window-y="-9"
     inkscape:window-maximized="1"
     inkscape:current-layer="layer1" /><defs
     id="defs5944" /><g
     inkscape:label="Layer 1"
     inkscape:groupmode="layer"
     id="layer1"><path
       style="fill:#000000;stroke-width:0.0626043"
       d="m 14.896192,40.896162 c -2.094286,-0.473073 -2.932067,-2.972564 -2.418391,-4.87392 0.708477,-5.926481 6.081646,-10.917884 12.080357,-11.024438 5.418506,-0.215467 10.79611,3.386234 12.428649,8.601926 0.633964,1.86317 1.085494,4.072689 0.141574,5.903974 -1.073783,1.625786 -3.250625,1.627 -4.984671,1.500923 -5.747521,-0.01665 -11.508029,0.130388 -17.247518,-0.108465 z m 8.991489,-17.686859 c -3.751011,-0.500082 -6.598719,-4.422822 -5.916602,-8.147383 0.468574,-4.20055 5.286898,-7.1995922 9.263877,-5.7421992 3.276373,1.0410002 5.508873,4.6317762 4.83631,8.0284312 -0.524377,3.746072 -4.469534,6.567044 -8.183585,5.861151 z"
       id="path6475" /><rect
       style="fill:none;stroke:#000000;stroke-width:2;stroke-linecap:round;stroke-linejoin:round;stroke-dasharray:2,6;stroke-dashoffset:0"
       id="rect6482"
       width="35"
       height="40"
       x="7.1566262"
       y="5.0096383"
       ry="5" /><circle
       style="fill:#ffffff;stroke:#000000;stroke-width:0.714286;stroke-linecap:round;stroke-linejoin:round;stroke-dasharray:none;stroke-dashoffset:0"
       id="path6899"
       cx="40.208134"
       cy="9.971385"
       r="7.1428571" /><text
       xml:space="preserve"
       style="font-weight:bold;font-size:14.1111px;font-family:sans-serif;-inkscape-font-specification:'sans-serif Bold';text-align:center;text-anchor:middle;fill:#000000;stroke:none;stroke-width:1;stroke-linecap:round;stroke-linejoin:round;stroke-dasharray:none;stroke-dashoffset:0"
       x="40.208134"
       y="14.532688"
       id="text7111"><tspan
         sodipodi:role="line"
         id="tspan7109"
         style="font-size:14.1111px;fill:#000000;stroke:none;stroke-width:1"
         x="40.208134"
         y="14.532688">+</tspan></text></g></svg>
