<?xml version="1.0" encoding="UTF-8" standalone="no"?>
<!-- Created with Inkscape (http://www.inkscape.org/) -->

<svg
   width="50mm"
   height="50mm"
   viewBox="0 0 50 50"
   version="1.1"
   id="svg5"
   xml:space="preserve"
   inkscape:version="1.2.1 (9c6d41e410, 2022-07-14)"
   sodipodi:docname="clear_all.svg"
   xmlns:inkscape="http://www.inkscape.org/namespaces/inkscape"
   xmlns:sodipodi="http://sodipodi.sourceforge.net/DTD/sodipodi-0.dtd"
   xmlns="http://www.w3.org/2000/svg"
   xmlns:svg="http://www.w3.org/2000/svg"><sodipodi:namedview
     id="namedview7"
     pagecolor="#ffffff"
     bordercolor="#000000"
     borderopacity="0.25"
     inkscape:showpageshadow="2"
     inkscape:pageopacity="0.0"
     inkscape:pagecheckerboard="0"
     inkscape:deskcolor="#d1d1d1"
     inkscape:document-units="mm"
     showgrid="false"
     inkscape:zoom="2.1181387"
     inkscape:cx="76.246188"
     inkscape:cy="105.51717"
     inkscape:window-width="1920"
     inkscape:window-height="991"
     inkscape:window-x="-9"
     inkscape:window-y="-9"
     inkscape:window-maximized="1"
     inkscape:current-layer="layer1" /><defs
     id="defs2" /><g
     inkscape:label="Layer 1"
     inkscape:groupmode="layer"
     id="layer1"><path
       style="fill:#000000;stroke-width:0.0439606"
       d="M 23.833232,47.484178 C 14.678159,47.120161 6.1895998,40.563377 3.544124,31.785536 0.87537884,23.589873 3.4370365,13.999424 9.9197373,8.2942563 16.512338,2.1727791 26.890066,0.7300067 34.909445,4.7892188 42.835806,8.586147 48.047322,17.347981 47.454112,26.142765 c -0.299224,9.355657 -7.175131,17.973648 -16.170921,20.474771 -2.413799,0.71959 -4.939255,0.948638 -7.449959,0.866642 z M 20.240071,32.946409 c 1.585925,-1.586533 3.171851,-3.173065 4.757776,-4.759598 3.188216,3.17151 6.374346,6.345117 9.55991,9.519292 1.054612,-1.05536 2.109228,-2.110716 3.163846,-3.166071 -3.179008,-3.180424 -6.358015,-6.360851 -9.537021,-9.541277 3.179057,-3.180478 6.358115,-6.360955 9.537174,-9.54143 -1.062113,-1.06255 -2.124224,-2.125101 -3.186332,-3.187654 -3.17916,3.180375 -6.358319,6.360751 -9.537478,9.541127 -3.179158,-3.180376 -6.358316,-6.360751 -9.537474,-9.541127 -1.062112,1.06255 -2.124223,2.125101 -3.186332,3.187654 3.179057,3.180476 6.358114,6.360953 9.537171,9.54143 -3.179006,3.180425 -6.358012,6.360852 -9.537018,9.541277 1.061008,1.056258 2.108942,2.125949 3.185874,3.165974 1.603464,-1.576204 3.188138,-3.171563 4.779904,-4.759597 z"
       id="path302" /></g></svg>
