<?xml version="1.0" encoding="UTF-8" standalone="no"?>
<!-- Created with Inkscape (http://www.inkscape.org/) -->

<svg
   width="50mm"
   height="50mm"
   viewBox="0 0 50 50"
   version="1.1"
   id="svg5947"
   xml:space="preserve"
   inkscape:version="1.2.1 (9c6d41e410, 2022-07-14)"
   sodipodi:docname="engine.svg"
   xmlns:inkscape="http://www.inkscape.org/namespaces/inkscape"
   xmlns:sodipodi="http://sodipodi.sourceforge.net/DTD/sodipodi-0.dtd"
   xmlns="http://www.w3.org/2000/svg"
   xmlns:svg="http://www.w3.org/2000/svg"><sodipodi:namedview
     id="namedview5949"
     pagecolor="#ffffff"
     bordercolor="#000000"
     borderopacity="0.25"
     inkscape:showpageshadow="2"
     inkscape:pageopacity="0.0"
     inkscape:pagecheckerboard="0"
     inkscape:deskcolor="#d1d1d1"
     inkscape:document-units="mm"
     showgrid="false"
     inkscape:zoom="1.4788159"
     inkscape:cx="307.34048"
     inkscape:cy="75.39816"
     inkscape:window-width="1920"
     inkscape:window-height="991"
     inkscape:window-x="-9"
     inkscape:window-y="-9"
     inkscape:window-maximized="1"
     inkscape:current-layer="layer1" /><defs
     id="defs5944" /><g
     inkscape:label="Layer 1"
     inkscape:groupmode="layer"
     id="layer1"><path
       style="fill:#000000;stroke-width:0.200947"
       d="M 20.926378,48.590489 C 20.582295,48.270268 20.48636,47.952447 20.48636,47.132809 V 46.084633 L 19.610302,45.769931 18.734237,45.455237 18.00483,46.12299 c -1.019927,0.933706 -1.640221,0.88933 -2.703994,-0.193423 -1.048635,-1.067358 -1.078833,-1.595128 -0.145898,-2.549534 l 0.700167,-0.716289 -0.437102,-0.949122 c -0.429708,-0.933077 -0.452915,-0.949124 -1.372696,-0.949124 -1.308973,0 -1.601073,-0.376392 -1.601073,-2.06305 0,-1.145135 0.0617,-1.371623 0.446844,-1.641129 0.245762,-0.171956 0.833838,-0.312653 1.306844,-0.312653 0.621564,0 0.860002,-0.08163 0.860002,-0.294442 0,-0.16195 0.149872,-0.608399 0.333042,-0.992109 0.331615,-0.69467 0.330323,-0.700758 -0.301583,-1.419696 -0.349039,-0.397116 -0.634619,-0.880448 -0.634619,-1.074068 0,-0.472227 1.823643,-2.244928 2.309445,-2.244928 0.2121,0 0.669749,0.275092 1.017009,0.611315 0.611556,0.592117 0.649725,0.601446 1.215886,0.29725 0.321485,-0.17273 0.833322,-0.400395 1.137414,-0.505916 0.477534,-0.165716 0.552892,-0.300089 0.552892,-0.985855 0,-1.140549 0.378134,-1.425206 1.893211,-1.425206 1.485516,0 1.926805,0.334066 1.926805,1.458629 0,0.67759 0.06778,0.755389 1.055526,1.212191 1.008006,0.466155 1.073636,0.472402 1.457637,0.138799 1.113075,-0.966977 1.594964,-0.936977 2.764481,0.172078 0.928581,0.880569 1.001484,1.658845 0.230664,2.462557 l -0.523288,0.545624 0.399267,1.072102 c 0.396424,1.064466 0.405847,1.072535 1.323706,1.133155 1.164822,0.07694 1.535191,0.54674 1.535191,1.94736 0,1.438429 -0.362763,1.872475 -1.627958,1.947852 -1.004774,0.05989 -1.021317,0.07166 -1.433122,1.024394 l -0.416616,0.963834 0.633054,0.652457 c 0.780259,0.804176 0.811794,1.494951 0.106467,2.332299 -1.140262,1.3537 -2.048113,1.423316 -3.167189,0.242861 -0.436152,-0.460066 -0.657545,-0.563325 -0.904743,-0.421982 -0.180011,0.102931 -0.576093,0.27532 -0.880184,0.383095 -0.503774,0.178552 -0.552893,0.285613 -0.552893,1.205139 C 24.507426,48.60306 24.075431,49 22.534799,49 21.636858,49 21.264536,48.90521 20.926378,48.590489 Z m 3.72649,-6.343309 c 2.913411,-1.674877 2.326938,-6.400421 -0.90564,-7.297243 -1.173157,-0.325481 -1.893279,-0.250658 -3.029013,0.314701 -1.936721,0.964093 -2.75926,3.261967 -1.861218,5.199595 1.052746,2.271427 3.589017,3.051646 5.795871,1.782947 z m 13.190863,-8.538523 c -0.12178,-0.150633 -0.281144,-0.553298 -0.354145,-0.894826 -0.114987,-0.537949 -0.254046,-0.648684 -1.040345,-0.828421 -0.849226,-0.194128 -0.928087,-0.176266 -1.225803,0.277636 -0.574383,0.875689 -0.988201,0.953875 -1.978933,0.37388 -1.048445,-0.613789 -1.286426,-1.230015 -0.795586,-2.060083 0.325763,-0.550884 0.320657,-0.601461 -0.132098,-1.309347 -0.415361,-0.649406 -0.568912,-0.73733 -1.300811,-0.744822 -1.00036,-0.01025 -1.241244,-0.26373 -1.40841,-1.48207 -0.146667,-1.068922 0.06847,-1.450143 0.924309,-1.637918 0.471685,-0.103486 0.607081,-0.278706 0.79671,-1.03099 0.222077,-0.88101 0.211005,-0.9226 -0.396409,-1.48941 -0.709309,-0.661893 -0.68038,-1.045329 0.162235,-2.150726 0.552308,-0.72454 1.025231,-0.810468 1.834,-0.333223 0.507734,0.299611 0.587939,0.292119 1.287604,-0.120254 0.675973,-0.398414 0.746141,-0.520589 0.746141,-1.29913 0,-1.057832 0.306872,-1.340751 1.58763,-1.463685 0.846627,-0.08126 1.013307,-0.03302 1.300172,0.376074 0.180983,0.258112 0.329055,0.664132 0.329055,0.902273 0,0.341102 0.180228,0.478686 0.849293,0.648335 0.824696,0.209113 0.867714,0.195267 1.484757,-0.47767 0.349495,-0.381167 0.768001,-0.693023 0.930009,-0.693023 0.162008,0 0.670037,0.2717 1.12894,0.603785 0.953467,0.689956 1.038969,1.126954 0.417132,2.132044 l -0.417245,0.67441 0.447451,0.627719 c 0.41106,0.576677 0.516289,0.61829 1.294055,0.511805 1.171478,-0.160403 1.534209,0.154816 1.657905,1.440723 0.120001,1.247549 -0.11216,1.598217 -1.169959,1.767189 -0.705692,0.112725 -0.774788,0.183555 -0.899736,0.92232 -0.125936,0.74461 -0.08497,0.841697 0.589459,1.397037 0.881917,0.72618 0.901081,1.067562 0.120374,2.144159 -0.68712,0.947545 -1.150537,1.042642 -2.03053,0.416693 l -0.585971,-0.416807 -0.720288,0.444696 c -0.685836,0.423426 -0.714271,0.48482 -0.594391,1.283378 0.101019,0.672975 0.05053,0.906789 -0.255367,1.183362 -0.51366,0.464363 -2.283283,0.673385 -2.581204,0.304887 z m 1.574141,-5.118737 c 1.258616,-0.631649 2.001997,-2.349461 1.598672,-3.694227 -0.771224,-2.571411 -3.71756,-3.375374 -5.573931,-1.520958 -2.688113,2.685281 0.55043,6.933954 3.975259,5.215185 z M 15.322387,27.709404 c -0.633069,-0.254802 -0.867623,-0.822667 -0.867623,-2.100535 0,-0.891356 -0.07287,-1.148793 -0.351843,-1.243192 -0.193512,-0.06551 -0.810593,-0.321352 -1.371283,-0.568609 l -1.019432,-0.449539 -0.832524,0.775749 C 9.7451643,25.180433 9.1061988,25.165974 7.9006092,24.055871 6.2181303,22.506653 6.0568368,21.50015 7.2984223,20.298031 l 0.6661541,-0.644979 -0.44774,-1.14279 C 7.2705801,17.881732 7.0147112,17.209311 6.9482288,17.016002 6.8546336,16.743839 6.5991143,16.66453 5.8157858,16.66453 c -1.5426677,0 -1.8157859,-0.377615 -1.8157859,-2.510517 0,-2.226976 0.3102767,-2.588301 2.3680407,-2.757569 0.6018905,-0.04949 0.7138901,-0.172335 1.2906284,-1.4154523 L 8.2902104,8.6197534 7.6530003,7.9630151 C 7.1777372,7.4731846 7.0157979,7.1229575 7.0157979,6.5849327 c 0,-0.7973902 0.2814466,-1.2007987 1.5771814,-2.2606343 1.1657338,-0.9534953 1.8121617,-0.9429289 2.8745357,0.046988 l 0.817196,0.7614695 1.336344,-0.448468 1.336343,-0.4484603 0.128603,-1.1578792 c 0.171294,-1.5423106 0.751725,-2.07954602 2.244984,-2.0779444 1.375455,0.00152 2.498803,0.3272724 2.750902,0.7978296 0.111878,0.2088246 0.203421,0.9085044 0.203421,1.5548356 V 4.52781 l 1.281389,0.6312178 1.281396,0.6312178 0.655006,-0.6750853 c 0.924827,-0.953169 1.645519,-1.2198434 2.42501,-0.8973079 0.800342,0.3311664 2.399325,2.2885535 2.399325,2.9371241 0,0.3184744 -0.35451,0.8701628 -0.991492,1.542971 l -0.991492,1.0472576 0.4385,1.2503969 0.438508,1.250404 h 1.245469 c 1.48734,0 2.288009,0.518896 2.328753,1.50923 0.07864,1.911484 -0.0614,2.73245 -0.5491,3.219669 -0.427322,0.42688 -0.677058,0.492974 -1.862527,0.492974 h -1.36904 l -0.519132,1.173341 -0.519125,1.173334 0.873756,0.923808 c 0.711382,0.752125 0.873762,1.063836 0.873762,1.677284 0,0.649375 -0.15219,0.900738 -1.101524,1.81927 -1.468965,1.421305 -2.1204,1.452868 -3.494084,0.169299 l -0.959418,-0.89648 -1.193286,0.483234 c -1.17904,0.477457 -1.193918,0.493557 -1.246313,1.348371 -0.132394,2.160267 -0.547801,2.577507 -2.548316,2.559562 -0.780851,-0.0068 -1.617379,-0.09228 -1.858946,-0.189505 z m 4.496937,-8.502027 c 1.944464,-0.984299 2.971823,-2.767567 2.839846,-4.929337 -0.09389,-1.537862 -0.55265,-2.609449 -1.538959,-3.594712 -2.682071,-2.6792464 -7.293379,-1.7129073 -8.779359,1.839781 -0.387398,0.926207 -0.382679,2.949398 0.009,3.886004 1.260864,3.014482 4.583359,4.259193 7.469406,2.798264 z"
       id="path6451" /></g></svg>
