<?xml version="1.0" encoding="UTF-8" standalone="no"?>
<!-- Created with Inkscape (http://www.inkscape.org/) -->

<svg
   width="50mm"
   height="50mm"
   viewBox="0 0 50 50"
   version="1.1"
   id="svg408"
   xml:space="preserve"
   inkscape:version="1.2.1 (9c6d41e410, 2022-07-14)"
   sodipodi:docname="upload.svg"
   xmlns:inkscape="http://www.inkscape.org/namespaces/inkscape"
   xmlns:sodipodi="http://sodipodi.sourceforge.net/DTD/sodipodi-0.dtd"
   xmlns="http://www.w3.org/2000/svg"
   xmlns:svg="http://www.w3.org/2000/svg"><sodipodi:namedview
     id="namedview410"
     pagecolor="#ffffff"
     bordercolor="#000000"
     borderopacity="0.25"
     inkscape:showpageshadow="2"
     inkscape:pageopacity="0.0"
     inkscape:pagecheckerboard="0"
     inkscape:deskcolor="#d1d1d1"
     inkscape:document-units="mm"
     showgrid="false"
     inkscape:zoom="2.0913616"
     inkscape:cx="56.661652"
     inkscape:cy="125.51632"
     inkscape:window-width="1920"
     inkscape:window-height="991"
     inkscape:window-x="-9"
     inkscape:window-y="-9"
     inkscape:window-maximized="1"
     inkscape:current-layer="layer1" /><defs
     id="defs405" /><g
     inkscape:label="Layer 1"
     inkscape:groupmode="layer"
     id="layer1"><path
       style="fill:#000000;stroke-width:0.0884026"
       d="m 24.618779,45.933817 c -0.18186,-0.0644 -0.395775,-0.171653 -0.475368,-0.23834 C 23.755379,45.37036 23.76209,45.568282 23.76209,34.449921 V 23.897474 l -2.396664,2.412529 c -2.062653,2.076308 -2.442548,2.421014 -2.7259,2.473404 -0.471867,0.08724 -0.755788,-0.01212 -1.138007,-0.398282 -0.293447,-0.296473 -0.33575,-0.391642 -0.33575,-0.75536 0,-0.228883 0.04372,-0.50349 0.09715,-0.610239 0.05343,-0.106746 1.666234,-1.784328 3.584001,-3.727952 2.85005,-2.888489 3.54708,-3.550393 3.816664,-3.62434 0.708691,-0.194403 0.707072,-0.195713 4.476294,3.62434 1.917767,1.943624 3.530566,3.621206 3.584001,3.727952 0.143323,0.286317 0.118083,0.897836 -0.04884,1.183324 -0.173118,0.29608 -0.710417,0.621869 -1.025607,0.621869 -0.123292,0 -0.335581,-0.04188 -0.471754,-0.09305 -0.136177,-0.05118 -1.306301,-1.160498 -2.600282,-2.46516 L 26.22471,23.8944 26.224377,34.512171 c -3.32e-4,10.374114 -0.0043,10.624299 -0.172013,10.902241 -0.292673,0.484945 -0.904709,0.706691 -1.433595,0.519405 z M 10.481498,37.537509 C 5.7964996,36.517939 2.237732,31.740635 2.5151802,26.843497 2.6696422,24.117137 3.568265,22.10688 5.5023048,20.161179 l 0.9715672,-0.977422 0.00744,-1.421712 c 0.00707,-1.349811 0.021567,-1.46453 0.2866896,-2.26848 0.796357,-2.414836 2.734321,-4.232136 5.1646824,-4.843121 0.61649,-0.154983 2.442199,-0.223818 2.814428,-0.106113 0.146787,0.04641 0.255975,-0.07167 0.659634,-0.713395 0.684186,-1.0876925 2.410214,-2.8308672 3.568544,-3.6039932 5.142074,-3.4320664 11.817144,-2.8490391 16.219149,1.4166457 1.910138,1.8509825 3.12441,3.9628675 3.707918,6.4488845 l 0.202356,0.862123 0.78996,0.278694 c 5.234073,1.84655 8.487329,7.614075 7.394149,13.108687 -0.83203,4.182 -3.697959,7.516678 -7.593211,8.835149 -1.480169,0.501012 -1.968929,0.541251 -6.240339,0.51377 l -3.874401,-0.02491 -0.235245,-0.222143 c -0.501139,-0.473224 -0.617604,-1.063282 -0.310354,-1.57238 0.374656,-0.620781 0.221068,-0.599221 4.661149,-0.654335 l 4.005888,-0.04973 0.791559,-0.244902 c 1.566366,-0.484622 2.788776,-1.239462 3.923727,-2.422911 C 45.049173,29.75555 45.731527,25.701111 44.13487,22.295814 43.614148,21.18523 43.122024,20.469522 42.32642,19.66572 41.175792,18.503234 39.854381,17.746393 38.231663,17.320434 36.997723,16.996526 36.871678,16.849088 36.652545,15.47326 35.93194,10.948989 32.506116,7.4289257 28.062993,6.6474211 26.854772,6.4349056 24.808633,6.5122297 23.674137,6.8132767 20.727123,7.5952908 18.27314,9.581686 16.816057,12.364599 c -0.438446,0.837397 -0.98115,1.077566 -1.849642,0.818547 -2.670205,-0.796366 -5.3807138,0.840002 -5.9493263,3.591675 -0.1403544,0.679216 -0.1084338,1.326286 0.1085083,2.199619 0.2552453,1.027526 0.1157356,1.386095 -0.7840673,2.015222 -1.5945445,1.114881 -2.6633608,2.647781 -3.1396765,4.502926 -0.2713273,1.056764 -0.2566885,2.561504 0.036107,3.711386 0.7008767,2.752528 2.6503126,4.876201 5.2875128,5.760096 0.603811,0.202379 0.703715,0.207275 5.193176,0.254558 4.176603,0.04399 4.598236,0.06193 4.814089,0.204948 0.720285,0.477217 0.769592,1.395959 0.108419,2.020252 l -0.235265,0.222143 -4.588407,0.01712 c -4.156147,0.01552 -4.658832,0.0017 -5.335987,-0.145575 z"
       id="path541" /></g></svg>
